<svg width="17" height="22" viewBox="0 0 17 22" fill="none" xmlns="http://www.w3.org/2000/svg">
<path opacity="0.5" d="M6.25751 3.28048C7.21342 2.00519 9.13357 1 11.0371 1C12.4709 0.999999 12.9489 1 14.3828 2.00519C15.3891 2.71069 16.4303 4.66281 15.8166 6.56615C13.9048 12.4954 11.515 16.6003 9.6032 18.8807C7.69138 21.1612 4.54562 21.8081 2.43387 19.7929C0.999987 18.4246 0.999968 17.9685 1 16.1442C1.00003 14.3198 3.08023 11.2373 4.3457 9.30272C5.3016 7.84144 7.21342 5.65396 8.16935 5.65396C9.68077 5.65396 10.2125 6.19535 10.5591 7.02224C11.515 9.30275 9.6032 11.1271 6.73547 15.688" stroke="#393939"/>
</svg>
