<svg width="29" height="28" viewBox="0 0 29 28" fill="none" xmlns="http://www.w3.org/2000/svg">
<path fill-rule="evenodd" clip-rule="evenodd" d="M19.0418 11.0209C19.0418 15.4507 15.4507 19.0418 11.0209 19.0418C6.59108 19.0418 3 15.4507 3 11.0209C3 6.59108 6.59108 3 11.0209 3C15.4507 3 19.0418 6.59108 19.0418 11.0209ZM18.2435 19.3454C16.3092 21.0251 13.7838 22.0418 11.0209 22.0418C4.93422 22.0418 0 17.1076 0 11.0209C0 4.93422 4.93422 0 11.0209 0C17.1076 0 22.0418 4.93422 22.0418 11.0209C22.0418 13.3101 21.3439 15.4362 20.1492 17.1982C20.3065 17.2704 20.4538 17.3713 20.5834 17.5009L28.3058 25.2233C28.8916 25.809 28.8916 26.7588 28.3058 27.3446C27.72 27.9304 26.7703 27.9304 26.1845 27.3446L18.4621 19.6222C18.3768 19.5369 18.3039 19.4439 18.2435 19.3454Z" fill="#9491A5"/>
</svg>
